
<svg xmlns="http://www.w3.org/2000/svg" xmlns:xlink="http://www.w3.org/1999/xlink" width="231.062" height="202.649" viewBox="0 0 231.062 202.649">
    <defs>
        <clipPath id="clip-path">
            <rect id="Rectangle_3411" data-name="Rectangle 3411" width="231.062" height="202.649" transform="translate(0 0)" fill="none"/>
        </clipPath>
    </defs>
    <g id="telescope" transform="translate(0 -0.004)">
        <g id="Group_21555" data-name="Group 21555" transform="translate(0 0.004)" clip-path="url(#clip-path)">
            <path id="Path_11601" data-name="Path 11601" d="M1431,552.184s1.117,18.6-.3,19.308-10.84-14.755-13.823-11.224,2.825,26.648,17.267,29.414,12.479-20.581,10.046-25.39S1431,552.184,1431,552.184" transform="translate(-1249.381 -487.171)" fill="#c88e7e"/>
            <rect id="Rectangle_3408" data-name="Rectangle 3408" width="10.608" height="4.176" transform="matrix(0.715, -0.699, 0.699, 0.715, 86.134, 40.993)" fill="#2f2b66"/>
            <rect id="Rectangle_3409" data-name="Rectangle 3409" width="4.488" height="19.38" transform="matrix(0.461, -0.888, 0.888, 0.461, 100.88, 36.267)" fill="#311e69"/>
            <path id="Path_11602" data-name="Path 11602" d="M619.339,141.982l39.173,20.336a.555.555,0,0,0,.748-.237l4.257-8.2a.555.555,0,0,0-.237-.748L624.108,132.8Z" transform="translate(-546.419 -117.161)" fill="#dfebf1"/>
            <path id="Path_11603" data-name="Path 11603" d="M654.124,184.446c3.554,1.665,5.927,2.614,7.233,3.1l-1.508,2.9a1.832,1.832,0,0,1-2.47.782l-38.04-19.748,2.725-5.248c2.5,1.663,5.249,3.472,8.044,5.275a192.686,192.686,0,0,0,24.017,12.934" transform="translate(-546.419 -146.665)" fill="#bdcbd0"/>
            <rect id="Rectangle_3410" data-name="Rectangle 3410" width="10.35" height="12.538" transform="translate(71.25 23.953) rotate(-62.564)" fill="#2f2b66"/>
            <path id="Path_11604" data-name="Path 11604" d="M769.09,215.613l6.436,3.341a.455.455,0,0,0,.614-.194l5.505-10.6a.455.455,0,0,0-.194-.614l-6.436-3.341a.455.455,0,0,0-.613.194L768.9,215a.455.455,0,0,0,.194.614" transform="translate(-678.322 -180.113)" fill="#2f2b66"/>
            <path id="Path_11605" data-name="Path 11605" d="M981.729,339.188l2.193,1.138a.32.32,0,0,0,.432-.137l3.122-6.014a.32.32,0,0,0-.137-.432l-2.193-1.139a.32.32,0,0,0-.432.137l-3.122,6.014a.32.32,0,0,0,.137.432" transform="translate(-865.989 -293.414)" fill="#2f2b66"/>
            <path id="Path_11606" data-name="Path 11606" d="M745.2,1526.206a2.09,2.09,0,0,0,.4-.039l37.539-7.308a2.088,2.088,0,1,0-.8-4.1l-37.539,7.308a2.088,2.088,0,0,0,.4,4.138" transform="translate(-655.621 -1336.38)" fill="#2f2b66"/>
            <path id="Path_11607" data-name="Path 11607" d="M463.908,1526.205a2.088,2.088,0,0,0,.4-4.138l-37.539-7.308a2.088,2.088,0,1,0-.8,4.1l37.539,7.308a2.112,2.112,0,0,0,.4.039" transform="translate(-374.324 -1336.38)" fill="#2f2b66"/>
            <path id="Path_11608" data-name="Path 11608" d="M1086.031,1650.72a3.393,3.393,0,1,1-6.5,1.963l-1.073-3.549,6.594-1.635Z" transform="translate(-951.486 -1453.525)" fill="#2f2b66"/>
            <path id="Path_11609" data-name="Path 11609" d="M787.68,658.455a3.392,3.392,0,0,1,4.229,2.266l34.473,114.053-6.594,1.636L785.414,662.685a3.393,3.393,0,0,1,2.266-4.23" transform="translate(-692.812 -580.801)" fill="#dfebf1"/>
            <path id="Path_11610" data-name="Path 11610" d="M735.429,668.687a3.393,3.393,0,0,1,3.393,3.393V786.394h-6.786V672.08a3.393,3.393,0,0,1,3.393-3.393" transform="translate(-645.847 -589.957)" fill="#dfebf1"/>
            <path id="Path_11611" data-name="Path 11611" d="M738.822,1670.156a3.393,3.393,0,0,1-6.786,0v-1.74h6.786Z" transform="translate(-645.847 -1471.979)" fill="#2f2b66"/>
            <path id="Path_11612" data-name="Path 11612" d="M413.439,660.688a3.393,3.393,0,1,1,6.472,2.039L384.055,776.553l-6.669-1.415Z" transform="translate(-332.953 -580.805)" fill="#dfebf1"/>
            <path id="Path_11613" data-name="Path 11613" d="M369.539,1650.553l6.669,1.414-1.086,3.448a3.393,3.393,0,1,1-6.472-2.039Z" transform="translate(-325.106 -1456.219)" fill="#2f2b66"/>
            <path id="Path_11614" data-name="Path 11614" d="M684.332,616.475h-3.907a1.5,1.5,0,0,0-1.5,1.5v.043a1.5,1.5,0,0,1-1.5,1.5h-7.957a1.5,1.5,0,0,1-1.5-1.5,1.5,1.5,0,0,0-1.5-1.5h-2.222a1.5,1.5,0,0,1-1.5-1.6c.172-2.786,1.366-8.318,8.051-9.272,8.969-1.281,13.288,2.97,14.992,8.921a1.5,1.5,0,0,1-1.449,1.91" transform="translate(-584.705 -534.135)" fill="#2f2b66"/>
            <path id="Path_11615" data-name="Path 11615" d="M41.635,54.972,133.011,98.6l7.106.442,7.614-15.255-4.447-6.049L53.6,31Z" transform="translate(-36.733 -27.348)" fill="#dfebf1"/>
            <path id="Path_11616" data-name="Path 11616" d="M142.14,196.183l-2.023,4.054-7.106-.442L41.635,156.171,46.86,145.7Z" transform="translate(-36.733 -128.547)" fill="#bdcbd0"/>
            <path id="Path_11617" data-name="Path 11617" d="M1.248,28.386l33.368,14.3,12.15-24.345L15.276.278a2.058,2.058,0,0,0-2.865.866L.217,25.576a2.058,2.058,0,0,0,1.03,2.81" transform="translate(0 -0.005)" fill="#2f2b66"/>
            <path id="Path_11618" data-name="Path 11618" d="M885.693,479.323l38.687,19.859-5.853,12.295-40.448-16.9Z" transform="translate(-774.696 -422.889)" fill="#2f2b66"/>
            <path id="Path_11619" data-name="Path 11619" d="M832.442,433.993l-7.613,15.255-7.106-.442L828,427.943Z" transform="translate(-721.445 -377.558)" fill="#1d133f"/>
            <path id="Path_11620" data-name="Path 11620" d="M781.357,404.2l5.365,2.8-10.273,20.862-5.508-2.63Z" transform="translate(-680.172 -356.607)" fill="#2f2b66"/>
            <path id="Path_11621" data-name="Path 11621" d="M1306.406,536.325l8.379-14.873a2.9,2.9,0,0,0-1.1-3.951L1311,515.992a2.9,2.9,0,0,0-3.951,1.1l-8.379,14.873Z" transform="translate(-1145.771 -454.911)" fill="#2f2b66"/>
            <path id="Path_11622" data-name="Path 11622" d="M635.141,530.889h0a2.393,2.393,0,0,1-2.065.216,2.393,2.393,0,0,0-3.184,1.966,2.393,2.393,0,0,1-1.118,1.75,2.393,2.393,0,0,0-.448,3.715A2.393,2.393,0,0,1,629,540.5a2.393,2.393,0,0,0,2.625,2.666,2.393,2.393,0,0,1,1.955.7,2.393,2.393,0,0,0,3.721-.39,2.393,2.393,0,0,1,1.767-1.091,2.393,2.393,0,0,0,2.016-3.152,2.392,2.392,0,0,1,.249-2.062,2.393,2.393,0,0,0-1.208-3.541,2.392,2.392,0,0,1-1.457-1.48h0a2.393,2.393,0,0,0-3.522-1.263" transform="translate(-553.741 -468.067)" fill="#2f2b66"/>
            <path id="Path_11623" data-name="Path 11623" d="M669.441,566.776h0a.868.868,0,0,1-.75.079.869.869,0,0,0-1.156.714.869.869,0,0,1-.406.635.869.869,0,0,0-.163,1.349.869.869,0,0,1,.244.714.869.869,0,0,0,.953.968.869.869,0,0,1,.71.255.869.869,0,0,0,1.351-.142.869.869,0,0,1,.642-.4.869.869,0,0,0,.732-1.145.869.869,0,0,1,.09-.749.869.869,0,0,0-.439-1.286.869.869,0,0,1-.529-.537.869.869,0,0,0-1.279-.459" transform="translate(-588.218 -499.93)" fill="#5f5ba5"/>
            <path id="Path_11624" data-name="Path 11624" d="M5.727,123.436c2.716,1.077,5.737,2.266,8.988,3.53,13.39,5.207,7.7,6.131,14.607,9.317a44.023,44.023,0,0,0,11.293,3.287l-6,12.017-33.368-14.3a2.058,2.058,0,0,1-1.03-2.81Z" transform="translate(-0.001 -108.903)" fill="#1d133f"/>
            <path id="Path_11625" data-name="Path 11625" d="M921.133,575.835l-2.606,5.473-40.448-16.9,2.963-5.936Z" transform="translate(-774.695 -492.72)" fill="#1d133f"/>
            <path id="Path_11626" data-name="Path 11626" d="M1306.406,536.337l-7.731-4.355,8.379-14.873a2.9,2.9,0,0,1,3.728-1.215c-1.192,3-2.884,7.812-2.512,10.1a7.368,7.368,0,0,0,1.872,3.71Z" transform="translate(-1145.771 -454.923)" fill="#1e1240"/>
            <path id="Path_11627" data-name="Path 11627" d="M1208.82,623.683a1.772,1.772,0,0,0-2.454.722l-.768,1.483-5.853,12.295-1.227,2.415a1.772,1.772,0,0,0,2.241,2.447l21.21-8.522a1.772,1.772,0,0,0,.22-3.182Z" transform="translate(-1057.23 -550.044)" fill="#2f2b66"/>
            <path id="Path_11628" data-name="Path 11628" d="M1603.207,1608.453c-1.26-1.876-.124-4.48.242-6.7l-8.933-1.646s.173,5.3-.891,6.976c-.464.731-9.327,5-9.457,6.008-.216,1.671,17.077,1.691,19.957.084,1.506-.841.463-2.664-.918-4.72" transform="translate(-1397.649 -1411.712)" fill="#f5c6b7"/>
            <path id="Path_11629" data-name="Path 11629" d="M1602.832,1663.96c-1.893.17-3.644,1.519-6.655,1.689-2.576.146-3.163-.949-3.253-1.76-2.189,1.388-8.645,4.619-8.755,5.474-.216,1.671,17.077,1.691,19.957.084,1.506-.841.463-2.664-.918-4.721a3.2,3.2,0,0,1-.375-.766" transform="translate(-1397.649 -1467.985)" fill="#050608"/>
            <path id="Path_11630" data-name="Path 11630" d="M1782.982,1608.453c-1.26-1.876-.124-4.48.242-6.7l-8.933-1.646s.173,5.3-.891,6.976c-.463.731-9.327,5-9.456,6.008-.216,1.671,17.077,1.691,19.957.084,1.506-.841.463-2.664-.918-4.72" transform="translate(-1556.258 -1411.712)" fill="#f5c6b7"/>
            <path id="Path_11631" data-name="Path 11631" d="M1782.606,1663.96c-1.893.17-3.644,1.519-6.655,1.689-2.576.146-3.163-.949-3.253-1.76-2.189,1.388-8.645,4.619-8.755,5.474-.216,1.671,17.077,1.691,19.957.084,1.506-.841.463-2.664-.918-4.721a3.19,3.19,0,0,1-.375-.766" transform="translate(-1556.257 -1467.985)" fill="#050608"/>
            <path id="Path_11632" data-name="Path 11632" d="M1569.73,794.442s-7.838,29.285-10.537,41.015c-2.91,12.643,7.335,51.717,14.287,53.859,6.413,1.976,7.674,4.4,10.446,2.886,5.539-3.025-5.557-36.444-5.223-46.947.207-6.512,13.255-47.467,10.645-52.455s-19.618,1.641-19.618,1.641" transform="translate(-1375.167 -697.818)" fill="#311e69"/>
            <path id="Path_11633" data-name="Path 11633" d="M1569.73,794.442s-7.838,29.285-10.537,41.015c-2.91,12.643,7.335,51.717,14.287,53.859,6.413,1.976,7.674,4.4,10.446,2.886,5.539-3.025-5.557-36.444-5.223-46.947.207-6.512,13.255-47.467,10.645-52.455s-19.618,1.641-19.618,1.641" transform="translate(-1375.167 -697.818)" fill="#311e69"/>
            <path id="Path_11634" data-name="Path 11634" d="M1542.555,552.184s10.753,7.3,13.186,12.108a21.1,21.1,0,0,1,1.493,6.445,33.546,33.546,0,0,1-14.3-3.392c.192-5.681-.377-15.161-.377-15.161" transform="translate(-1360.937 -487.171)" fill="#5587ba"/>
            <path id="Path_11635" data-name="Path 11635" d="M1742.055,827.908c-1.426-13.711,9.275-47.9-2.315-53.2s-21.227,5.745-21.227,5.745.214,41.657,2.855,55.688c1.921,10.206,10.19,37.245,10.538,38.04,1.3,2.969,13.8,5.341,13.247,2.926-.151-.658.736-19.072-.622-32.854-.661-6.7-2.088-12.62-2.475-16.348" transform="translate(-1516.177 -682.229)" fill="#311e69"/>
            <path id="Path_11636" data-name="Path 11636" d="M1738.138,880.763c-2.631-.728-5.052-1.845-5.586-3.064-.348-.8-8.616-27.834-10.538-38.04-1.944-10.324-2.572-35.588-2.769-48.226,1.528-5.071,3.47-9.378,5.7-12.047a20.025,20.025,0,0,1,5.208-2.129c.25,5.483,1.738,39.919-.035,45.551-1.927,6.122,5.137,40.414,6,45.872.546,3.452,1.872,8.31,2.022,12.083" transform="translate(-1516.823 -685.744)" fill="#1e1240"/>
            <path id="Path_11637" data-name="Path 11637" d="M1559.192,844c2.7-11.73,10.537-41.015,10.537-41.015a72.03,72.03,0,0,1,7.459-2.36c.112,7.706-.166,16.584-1.749,21.041-3.14,8.835-9.628,20.451-9.732,25.264s11.916,33.278,11.5,42.069c-.194,4.138.079,7.62-.152,10.2a32.419,32.419,0,0,0-3.579-1.336c-6.952-2.142-17.2-41.217-14.287-53.859" transform="translate(-1375.167 -706.36)" fill="#1e1240"/>
            <path id="Path_11638" data-name="Path 11638" d="M1589.054,472.2c3.055-13.7-4.43-55.289-21.264-58.04-9.2-1.5-31.514,6.547-27.288,20.271,2.8,9.109,7,10.237,9.1,14.075,1.28,2.342,1,14.3,1.282,17.252.517,5.452,10.917,9,16.32,9.9,13.627,2.266,20.63,2.036,21.854-3.458" transform="translate(-1358.66 -365.242)" fill="#79b3d1"/>
            <path id="Path_11639" data-name="Path 11639" d="M1548.455,456.458c.037,3.016.352,7.566,1.739,10.852,2.253,5.337,11.877,31.156,10.891,38.143a43.033,43.033,0,0,1-1.229,5.612c-4.431-1.738-8.649-4.409-8.973-7.831-.279-2.949,0-14.91-1.283-17.252-2.1-3.839-6.291-4.966-9.1-14.075-2.036-6.615,2.1-11.906,7.95-15.45" transform="translate(-1358.664 -402.716)" fill="#5587ba"/>
            <path id="Path_11640" data-name="Path 11640" d="M1558.239,354.27s-2.326-.854-2.292-2.841,1.705-5.035,4.066-4.757a3.134,3.134,0,0,1,2.843,1.868,2.949,2.949,0,0,1,2.473,1.192,20.586,20.586,0,0,1,1.875,4.971s-7.091,1.651-8.965-.432" transform="translate(-1372.752 -305.84)" fill="#050608"/>
            <path id="Path_11641" data-name="Path 11641" d="M1627.565,400.308l3.044,2.51c2.649,2.184,2.533,3.514-.119,5.7-.4.332-2.812,1.687-2.882,1.244l-.865-6.861Z" transform="translate(-1435.213 -353.177)" fill="#f5c6b7"/>
            <path id="Path_11642" data-name="Path 11642" d="M1578.691,384.062l3.726,2.749a2.825,2.825,0,0,1,.336,3.926,7.8,7.8,0,0,1-2.734,2.116c-1.113.605-2.339,0-3.3-1.347a15.4,15.4,0,0,1-2.175-4.766c-.656-2.432,1.583-4.291,4.142-2.677" transform="translate(-1389.061 -338.309)" fill="#f5c6b7"/>
            <path id="Path_11643" data-name="Path 11643" d="M1592.052,388.051l-3.726-2.749a4.182,4.182,0,0,0-.92-.44,9.526,9.526,0,0,1,1.666,2.627c-.023,1.028-.423.384-1.652,1.2a9.009,9.009,0,0,0-2.066,2.362,12.8,12.8,0,0,0,1.005,1.69c.956,1.343,2.182,1.952,3.295,1.347a7.8,7.8,0,0,0,2.734-2.116,2.825,2.825,0,0,0-.336-3.926" transform="translate(-1398.696 -339.549)" fill="#050608"/>
            <path id="Path_11644" data-name="Path 11644" d="M1593.157,423.768a7.612,7.612,0,0,1-2,1.518s.523.8,1.19.738,1.193-1.123.812-2.256" transform="translate(-1403.815 -373.875)" fill="#fff"/>
            <path id="Path_11645" data-name="Path 11645" d="M1605.055,416.433c.983-1.046,3.09.071,3.957-3.026a3.614,3.614,0,0,0-.373-1.969l.082.06a2.825,2.825,0,0,1,.336,3.926,7.806,7.806,0,0,1-2.734,2.116,1.967,1.967,0,0,1-2.076-.141c.228-.113.508-.646.808-.966" transform="translate(-1415.365 -362.996)" fill="#050608"/>
            <path id="Path_11646" data-name="Path 11646" d="M1612.68,385.924a4.063,4.063,0,0,0-.432-.741c-.316-.445-.682-1.179.208-1.323,1.295-.21,2.845,1.94,1.874,2.9-.721.714-1.365-.174-1.651-.838" transform="translate(-1422.115 -338.653)" fill="#f5c6b7"/>
            <path id="Path_11647" data-name="Path 11647" d="M1399.185,424.906c-8.919-.951-11.31,32.434-15.357,34.432-5.3,2.616-32.667-19.012-35.788-14.965-5.966,7.736,26.342,38.791,43.742,32.127,17.125-6.559,19.5-50.3,7.4-51.595" transform="translate(-1188.683 -374.861)" fill="#f5c6b7"/>
            <path id="Path_11648" data-name="Path 11648" d="M1324.867,565.443s-4.64-3.974-7.957-4.322a1.975,1.975,0,0,0-1.889,1.023,4.2,4.2,0,0,0-.2,4.2c.378.749,1.151-.785,1.151-.785s2.29,3.3,4.709,3.453,4.184-3.565,4.184-3.565" transform="translate(-1159.603 -495.047)" fill="#f5c6b7"/>
            <path id="Path_11649" data-name="Path 11649" d="M1687.211,442.836c1.78-6.473,3.139-16.249,8.4-20.98,1.035-.931,5.1-.22,6.514.978,4.49,3.807,5.245,13.849,5.73,21.964-2.134,1.025-13.06,2.205-20.642-1.962" transform="translate(-1488.561 -371.811)" fill="#79b3d1"/>
            <path id="Path_11650" data-name="Path 11650" d="M1695.61,421.886a4.226,4.226,0,0,1,3-.322,68.407,68.407,0,0,0-3.47,13.72c-.542,3.946-.911,7.411-1.147,9.915a23.218,23.218,0,0,1-6.78-2.332c1.78-6.473,3.139-16.249,8.4-20.98" transform="translate(-1488.562 -371.841)" fill="#5587ba"/>
            <path id="Path_11651" data-name="Path 11651" d="M1348.005,617.7c.216.164,4.639,3.527,5.456,5.239.837,1.755,10.674,4.942,15.384,7.768s8.686,10.256,12.968,12.453,8.381-.733,12.462-3.139c2.85-1.681,8.09-8,11-11.658-2.329,8.461-6.612,15.85-12.881,18.251-15.541,5.952-42.955-18.177-44.385-28.913" transform="translate(-1189.293 -544.971)" fill="#c88e7e"/>
        </g>
    </g>
</svg>
